<?xml version="1.0" encoding="UTF-8"?>
<svg xmlns="http://www.w3.org/2000/svg" viewBox="0 0 100 100" width="100" height="100">
<path d="M81.5 36.04C69.13 24.94 48.12 23.19 32.73 28.21C29.61 29.23 26.26 30.53 23.48 32.31C21.78 33.4 19.99 35.34 18.17 35.97C17.38 32.51 24.87 24.91 27.53 22.7C39.77 12.54 57.39 12.27 70.45 21.05C74.44 23.73 77.73 27.59 80.19 31.65C80.95 32.9 82.7 34.9 81.5 36.04Z" fill="#ee8f02" fill-rule="evenodd" stroke="#ee8f02" stroke-width="0.25" stroke-linejoin="round"/>
<path d="M81.83 64.05C82.72 67.35 75.03 75.16 72.46 77.29C60.15 87.53 41.35 88.09 28.67 78.17C25.74 75.88 17.07 67.61 18.5 63.99C30.71 76.14 54.83 76.12 70.03 70.84C74.14 69.41 78.53 65.06 81.83 64.05Z" fill="#e46602" fill-rule="evenodd" stroke="#e46602" stroke-width="0.25" stroke-linejoin="round"/>
<path d="M77.17 3.77C79.04 5.01 80.55 5.82 82.24 7.5C82.16 12.25 81.13 15.03 76.17 16.09C74.83 15.36 73.5 14.63 72.17 13.9C71.75 13.1 71.33 12.3 70.91 11.5C70.91 10.17 70.91 8.83 70.91 7.5C73.17 5.67 74.11 4.19 77.17 3.77ZM21.04 18.5C20.79 19.06 20.54 19.61 20.29 20.17C14.77 24.5 14.76 22.02 10.98 18.5C11.95 11.83 20.07 11.87 21.04 18.5ZM22.83 84.11C23.39 84.11 23.94 84.11 24.5 84.11C25.22 84.8 26.01 84.65 26.76 85.26C28.37 86.56 28.9 88.25 29.86 89.83C29.86 90.72 29.86 91.61 29.86 92.5C29.65 93.17 29.44 93.83 29.23 94.5C27.34 96 25.92 97.54 23.49 98.23C19.46 99.37 14.87 93.4 15.77 89.84C16.68 86.25 19.85 84.69 22.83 84.11Z" fill="#a6adb5" fill-rule="evenodd" stroke="#a6adb5" stroke-width="0.25" stroke-linejoin="round"/>
</svg>